<svg version="1.1" id="Layer_1" xmlns="http://www.w3.org/2000/svg" xmlns:xlink="http://www.w3.org/1999/xlink" x="0px" y="0px"
	 width="100%" viewBox="0 0 634 634" enable-background="new 0 0 634 634" xml:space="preserve">
<path fill="#FE4F40" opacity="1.000000" stroke="none" 
	d="
M1.000000,459.000000 
	C1.000000,365.312439 1.000000,271.624878 1.354915,177.225494 
	C2.806025,162.884567 3.623944,149.225769 5.075801,135.634674 
	C6.561110,121.730431 9.953769,108.223709 15.864638,95.477753 
	C25.389532,74.938675 38.329483,56.986546 55.424328,41.925537 
	C70.433762,28.701826 86.967049,18.104198 105.854530,11.720066 
	C126.554543,4.723289 148.158401,2.596324 169.919037,1.968866 
	C171.953644,1.910199 173.973373,1.335243 176.000000,1.000000 
	C270.020905,1.000000 364.041779,1.000000 458.774384,1.355007 
	C472.952454,2.806353 486.442963,3.670033 499.878754,5.061517 
	C514.645264,6.590820 528.908264,10.352920 542.338867,16.760962 
	C563.779358,26.990686 581.958008,41.392605 597.239685,59.633190 
	C611.509399,76.665855 622.020020,95.521362 627.131653,117.239723 
	C631.982605,137.850479 633.763550,158.794998 634.016724,179.916641 
	C634.053040,182.947922 634.658142,185.972382 635.000000,189.000000 
	C635.000000,274.687561 635.000000,360.375122 634.645020,446.774689 
	C632.858093,466.402435 632.319458,485.444061 629.677917,504.189331 
	C627.937988,516.536682 624.463013,529.020081 619.488831,540.452271 
	C609.003601,564.550476 592.839783,584.671997 571.811646,600.667419 
	C556.908020,612.004089 540.907593,621.218506 522.615967,626.040710 
	C499.980560,632.007935 476.889435,633.819092 453.591705,633.993103 
	C451.392090,634.009460 449.197113,634.649475 447.000000,635.000000 
	C361.312439,635.000000 275.624878,635.000000 189.225327,634.645020 
	C169.277115,632.859314 149.980255,631.969727 130.824310,629.822754 
	C116.114807,628.174255 101.876686,623.707581 88.740623,616.796143 
	C68.686974,606.244873 51.303642,592.202209 37.008274,574.501892 
	C28.186489,563.578918 20.539446,551.861816 15.134302,538.904846 
	C5.227157,515.155945 2.714261,490.013855 1.999068,464.587372 
	C1.946460,462.717041 1.345844,460.862091 1.000000,459.000000 
M383.753021,497.253693 
	C395.607483,485.981079 407.461945,474.708466 418.996735,463.739838 
	C418.996735,463.803589 418.982452,464.772919 418.998962,465.741760 
	C419.137909,473.899628 418.352722,482.202576 419.599884,490.187927 
	C423.332733,514.089294 438.985718,528.859802 459.640350,538.973389 
	C471.040070,544.555298 481.988800,542.885803 491.612885,534.332886 
	C498.953491,527.809326 506.342529,521.334778 513.524109,514.639038 
	C524.465759,504.437500 535.246826,494.063629 546.277100,483.591156 
	C544.465027,481.164459 542.809387,478.947266 541.039001,476.576416 
	C539.510315,477.297577 538.330017,477.859894 537.145203,478.412445 
	C523.123596,484.951904 507.888794,476.553864 506.088837,461.171600 
	C505.490356,456.056915 505.054169,450.888489 505.049652,445.744202 
	C504.962769,346.916595 504.933685,248.088959 505.039948,149.261459 
	C505.042267,147.102585 506.272461,144.479187 507.780090,142.867981 
	C514.494080,135.692474 521.550110,128.838379 528.419983,121.806999 
	C534.782043,115.295448 541.064636,108.706322 547.579651,101.946449 
	C544.582397,99.245529 542.172424,97.073822 539.772888,94.911575 
	C509.771667,124.344475 480.187347,153.368347 450.390656,182.600571 
	C445.996124,177.557114 441.957581,172.712936 437.688354,168.081406 
	C433.403442,163.432739 429.011749,158.867935 424.455383,154.486298 
	C380.997070,112.694397 328.975464,96.070518 269.496887,103.039856 
	C233.807922,107.221664 204.077866,123.874039 180.295090,150.601654 
	C151.368240,183.110336 138.631866,221.200287 143.150452,264.703094 
	C145.230469,284.728577 149.456329,304.162048 160.857437,321.282898 
	C162.778168,324.167236 161.881500,325.667908 159.515457,327.844543 
	C140.417953,345.412903 121.491409,363.167145 102.286331,381.075714 
	C105.543282,383.916199 107.984222,386.045013 110.455261,388.200104 
	C116.122276,383.587006 122.104652,378.571472 128.242203,373.753662 
	C138.699020,365.545227 150.552292,360.712067 163.918411,362.132172 
	C182.415131,364.097351 200.866455,366.644531 219.239548,369.558350 
	C229.652420,371.209717 239.870132,374.091705 251.848969,376.797363 
	C196.172729,430.674408 141.581146,483.501862 86.827179,536.486450 
	C88.646599,539.007568 90.433685,541.483826 92.096657,543.788147 
	C106.397202,531.549866 120.307823,519.659119 134.202652,507.749969 
	C146.001282,497.637512 159.528366,495.405396 174.438828,498.450836 
	C193.479996,502.340088 211.106766,510.169342 228.925659,517.488708 
	C250.126389,526.197266 271.171997,535.231018 293.595856,540.633606 
	C315.460571,545.901489 334.848877,542.108765 351.631134,526.807068 
	C362.208527,517.162903 372.714996,507.440918 383.753021,497.253693 
z"/>
<path fill="#4C6971" opacity="1.000000" stroke="none" 
	d="
M447.468658,635.000000 
	C449.197113,634.649475 451.392090,634.009460 453.591705,633.993103 
	C476.889435,633.819092 499.980560,632.007935 522.615967,626.040710 
	C540.907593,621.218506 556.908020,612.004089 571.811646,600.667419 
	C592.839783,584.671997 609.003601,564.550476 619.488831,540.452271 
	C624.463013,529.020081 627.937988,516.536682 629.677917,504.189331 
	C632.319458,485.444061 632.858093,466.402435 634.645020,447.243347 
	C635.000000,509.593689 635.000000,572.187378 635.000000,635.000000 
	C572.645935,635.000000 510.291626,635.000000 447.468658,635.000000 
z"/>
<path fill="#4C6971" opacity="1.000000" stroke="none" 
	d="
M1.000000,459.468658 
	C1.345844,460.862091 1.946460,462.717041 1.999068,464.587372 
	C2.714261,490.013855 5.227157,515.155945 15.134302,538.904846 
	C20.539446,551.861816 28.186489,563.578918 37.008274,574.501892 
	C51.303642,592.202209 68.686974,606.244873 88.740623,616.796143 
	C101.876686,623.707581 116.114807,628.174255 130.824310,629.822754 
	C149.980255,631.969727 169.277115,632.859314 188.756668,634.645020 
	C126.408722,635.000000 63.817451,635.000000 1.000000,635.000000 
	C1.000000,576.645996 1.000000,518.291626 1.000000,459.468658 
z"/>
<path fill="#4C6971" opacity="1.000000" stroke="none" 
	d="
M635.000000,188.531342 
	C634.658142,185.972382 634.053040,182.947922 634.016724,179.916641 
	C633.763550,158.794998 631.982605,137.850479 627.131653,117.239723 
	C622.020020,95.521362 611.509399,76.665855 597.239685,59.633190 
	C581.958008,41.392605 563.779358,26.990686 542.338867,16.760962 
	C528.908264,10.352920 514.645264,6.590820 499.878754,5.061517 
	C486.442963,3.670033 472.952454,2.806353 459.243042,1.355007 
	C517.596069,1.000000 576.192200,1.000000 635.000000,1.000000 
	C635.000000,63.354069 635.000000,125.708374 635.000000,188.531342 
z"/>
<path fill="#4C6971" opacity="1.000000" stroke="none" 
	d="
M175.531342,1.000000 
	C173.973373,1.335243 171.953644,1.910199 169.919037,1.968866 
	C148.158401,2.596324 126.554543,4.723289 105.854530,11.720066 
	C86.967049,18.104198 70.433762,28.701826 55.424328,41.925537 
	C38.329483,56.986546 25.389532,74.938675 15.864638,95.477753 
	C9.953769,108.223709 6.561110,121.730431 5.075801,135.634674 
	C3.623944,149.225769 2.806025,162.884567 1.354915,176.756836 
	C1.000000,118.406525 1.000000,59.813042 1.000000,1.000000 
	C59.020710,1.000000 117.041695,1.000000 175.531342,1.000000 
z"/>
<path fill="#020100" opacity="1.000000" stroke="none" 
	d="
M383.503143,497.503723 
	C372.714996,507.440918 362.208527,517.162903 351.631134,526.807068 
	C334.848877,542.108765 315.460571,545.901489 293.595856,540.633606 
	C271.171997,535.231018 250.126389,526.197266 228.925659,517.488708 
	C211.106766,510.169342 193.479996,502.340088 174.438828,498.450836 
	C159.528366,495.405396 146.001282,497.637512 134.202652,507.749969 
	C120.307823,519.659119 106.397202,531.549866 92.096657,543.788147 
	C90.433685,541.483826 88.646599,539.007568 86.827179,536.486450 
	C141.581146,483.501862 196.172729,430.674408 251.848969,376.797363 
	C239.870132,374.091705 229.652420,371.209717 219.239548,369.558350 
	C200.866455,366.644531 182.415131,364.097351 163.918411,362.132172 
	C150.552292,360.712067 138.699020,365.545227 128.242203,373.753662 
	C122.104652,378.571472 116.122276,383.587006 110.455261,388.200104 
	C107.984222,386.045013 105.543282,383.916199 102.286331,381.075714 
	C121.491409,363.167145 140.417953,345.412903 159.515457,327.844543 
	C161.881500,325.667908 162.778168,324.167236 160.857437,321.282898 
	C149.456329,304.162048 145.230469,284.728577 143.150452,264.703094 
	C138.631866,221.200287 151.368240,183.110336 180.295090,150.601654 
	C204.077866,123.874039 233.807922,107.221664 269.496887,103.039856 
	C328.975464,96.070518 380.997070,112.694397 424.455383,154.486298 
	C429.011749,158.867935 433.403442,163.432739 437.688354,168.081406 
	C441.957581,172.712936 445.996124,177.557114 450.390656,182.600571 
	C480.187347,153.368347 509.771667,124.344475 539.772888,94.911575 
	C542.172424,97.073822 544.582397,99.245529 547.579651,101.946449 
	C541.064636,108.706322 534.782043,115.295448 528.419983,121.806999 
	C521.550110,128.838379 514.494080,135.692474 507.780090,142.867981 
	C506.272461,144.479187 505.042267,147.102585 505.039948,149.261459 
	C504.933685,248.088959 504.962769,346.916595 505.049652,445.744202 
	C505.054169,450.888489 505.490356,456.056915 506.088837,461.171600 
	C507.888794,476.553864 523.123596,484.951904 537.145203,478.412445 
	C538.330017,477.859894 539.510315,477.297577 541.039001,476.576416 
	C542.809387,478.947266 544.465027,481.164459 546.277100,483.591156 
	C535.246826,494.063629 524.465759,504.437500 513.524109,514.639038 
	C506.342529,521.334778 498.953491,527.809326 491.612885,534.332886 
	C481.988800,542.885803 471.040070,544.555298 459.640350,538.973389 
	C438.985718,528.859802 423.332733,514.089294 419.599884,490.187927 
	C418.352722,482.202576 419.137909,473.899628 418.998962,465.741760 
	C418.982452,464.772919 418.996735,463.803589 418.996735,463.739838 
	C407.461945,474.708466 395.607483,485.981079 383.503143,497.503723 
M209.285873,438.501007 
	C220.648636,435.243225 232.032898,436.088928 243.383133,438.473877 
	C266.130188,443.253632 287.128845,452.907745 308.424866,461.781372 
	C326.034760,469.119019 343.420135,477.191528 362.451691,480.478516 
	C372.220917,482.165741 381.382507,481.329498 389.157776,474.404236 
	C398.470123,466.109833 407.697571,457.719025 417.084137,449.509857 
	C419.590546,447.317841 420.280060,444.872040 420.268127,441.661957 
	C420.166046,414.174774 420.214081,386.687042 420.198181,359.199493 
	C420.197296,357.631653 420.030273,356.063873 419.928345,354.282379 
	C409.541534,363.041809 399.392059,371.305511 389.574463,379.946350 
	C372.798004,394.712006 353.599823,399.105255 331.972565,394.383270 
	C311.346130,389.879822 290.664398,385.628021 270.054047,381.053650 
	C267.112640,380.400818 265.117584,380.717834 263.054626,382.889893 
	C259.386749,386.751709 255.486053,390.391876 251.698212,394.140411 
	C237.030380,408.655731 222.368591,423.177216 207.169144,437.991364 
	C207.168594,438.245850 207.168030,438.500336 207.167496,438.754852 
	C207.605911,438.678375 208.044312,438.601898 209.285873,438.501007 
M334.127228,296.628174 
	C351.035950,279.024536 367.944672,261.420929 385.768982,242.864059 
	C376.177948,233.163956 366.078979,221.590134 354.604370,211.595703 
	C317.655548,179.413162 274.035767,168.341492 226.074326,174.202026 
	C196.453629,177.821426 175.106888,193.984787 164.300385,222.064056 
	C152.133240,253.678833 155.666534,284.745026 170.223328,314.875763 
	C170.687805,315.837219 171.531693,316.615356 172.224838,317.512756 
	C177.905548,313.728851 183.259613,310.092468 188.683105,306.562775 
	C206.789246,294.779114 226.148682,288.659485 247.864746,293.973816 
	C269.802032,299.342285 291.727142,304.766022 313.592773,310.416443 
	C317.170929,311.341095 319.656921,311.428558 322.293060,308.385101 
	C325.769440,304.371643 329.822021,300.857269 334.127228,296.628174 
M420.209869,254.500153 
	C420.209869,246.483261 420.209869,238.466370 420.209869,229.268814 
	C390.095184,258.663544 361.035034,287.028992 331.278381,316.074280 
	C361.294952,323.890839 389.617432,333.974274 420.209869,335.396271 
	C420.209869,308.076416 420.209869,281.788300 420.209869,254.500153 
z"/>
<path fill="#FE4F40" opacity="1.000000" stroke="none" 
	d="
M333.877075,296.878235 
	C329.822021,300.857269 325.769440,304.371643 322.293060,308.385101 
	C319.656921,311.428558 317.170929,311.341095 313.592773,310.416443 
	C291.727142,304.766022 269.802032,299.342285 247.864746,293.973816 
	C226.148682,288.659485 206.789246,294.779114 188.683105,306.562775 
	C183.259613,310.092468 177.905548,313.728851 172.224838,317.512756 
	C171.531693,316.615356 170.687805,315.837219 170.223328,314.875763 
	C155.666534,284.745026 152.133240,253.678833 164.300385,222.064056 
	C175.106888,193.984787 196.453629,177.821426 226.074326,174.202026 
	C274.035767,168.341492 317.655548,179.413162 354.604370,211.595703 
	C366.078979,221.590134 376.177948,233.163956 385.768982,242.864059 
	C367.944672,261.420929 351.035950,279.024536 333.877075,296.878235 
z"/>
<path fill="#FD4F40" opacity="1.000000" stroke="none" 
	d="
M207.704575,437.696411 
	C222.368591,423.177216 237.030380,408.655731 251.698212,394.140411 
	C255.486053,390.391876 259.386749,386.751709 263.054626,382.889893 
	C265.117584,380.717834 267.112640,380.400818 270.054047,381.053650 
	C290.664398,385.628021 311.346130,389.879822 331.972565,394.383270 
	C353.599823,399.105255 372.798004,394.712006 389.574463,379.946350 
	C399.392059,371.305511 409.541534,363.041809 419.928345,354.282379 
	C420.030273,356.063873 420.197296,357.631653 420.198181,359.199493 
	C420.214081,386.687042 420.166046,414.174774 420.268127,441.661957 
	C420.280060,444.872040 419.590546,447.317841 417.084137,449.509857 
	C407.697571,457.719025 398.470123,466.109833 389.157776,474.404236 
	C381.382507,481.329498 372.220917,482.165741 362.451691,480.478516 
	C343.420135,477.191528 326.034760,469.119019 308.424866,461.781372 
	C287.128845,452.907745 266.130188,443.253632 243.383133,438.473877 
	C232.032898,436.088928 220.648636,435.243225 208.691589,438.304230 
	C207.966400,437.970428 207.835480,437.833405 207.704575,437.696411 
z"/>
<path fill="#FD4F40" opacity="1.000000" stroke="none" 
	d="
M420.209869,255.000153 
	C420.209869,281.788300 420.209869,308.076416 420.209869,335.396271 
	C389.617432,333.974274 361.294952,323.890839 331.278381,316.074280 
	C361.035034,287.028992 390.095184,258.663544 420.209869,229.268814 
	C420.209869,238.466370 420.209869,246.483261 420.209869,255.000153 
z"/>
<path fill="#FD4F40" opacity="1.000000" stroke="none" 
	d="
M208.290009,438.316467 
	C208.044312,438.601898 207.605911,438.678375 207.167480,438.754822 
	C207.168030,438.500336 207.168594,438.245850 207.436859,437.843872 
	C207.835480,437.833405 207.966400,437.970428 208.290009,438.316467 
z"/>
</svg>